<?xml version="1.0" standalone="no"?>
<!DOCTYPE svg PUBLIC "-//W3C//DTD SVG 20010904//EN"
 "http://www.w3.org/TR/2001/REC-SVG-20010904/DTD/svg10.dtd">
<svg version="1.0" xmlns="http://www.w3.org/2000/svg"
 width="2513.000000pt" height="2513.000000pt" viewBox="0 0 2513.000000 2513.000000"
 preserveAspectRatio="xMidYMid meet">
<metadata>
Created by potrace 1.11, written by Peter Selinger 2001-2013
</metadata>
<g transform="translate(0.000000,2513.000000) scale(0.100000,-0.100000)"
fill="#000000" stroke="none">
<path d="M6187 23483 c-15 -25 -63 -116 -212 -398 -26 -49 -60 -112 -75 -140
-15 -27 -53 -99 -85 -160 -32 -60 -70 -132 -85 -160 -15 -27 -51 -95 -80 -150
-29 -55 -65 -122 -80 -150 -15 -27 -53 -99 -85 -160 -32 -60 -75 -141 -95
-180 -21 -38 -59 -110 -85 -160 -26 -49 -64 -121 -85 -160 -76 -142 -120 -224
-205 -385 -48 -91 -104 -196 -125 -235 -20 -38 -58 -108 -82 -155 -25 -47 -67
-125 -93 -175 -26 -49 -62 -117 -80 -150 -18 -33 -58 -109 -90 -170 -32 -60
-70 -132 -85 -160 -15 -27 -54 -99 -85 -160 -32 -60 -70 -133 -86 -162 -16
-29 -29 -56 -29 -62 0 -6 1139 -9 3143 -10 1728 0 3148 0 3155 0 9 -1 12
-1223 12 -6074 l0 -6074 1823 0 1824 0 0 6069 c0 3337 3 6071 6 6074 5 5 2273
9 2439 4 16 0 67 -88 223 -385 32 -60 61 -114 65 -120 4 -5 29 -50 55 -100 26
-49 74 -137 105 -195 31 -58 79 -145 105 -195 26 -49 73 -137 105 -195 31 -58
76 -141 100 -185 24 -44 55 -102 70 -130 15 -27 49 -90 75 -140 26 -49 71
-133 100 -185 29 -52 73 -133 98 -180 86 -163 120 -225 142 -265 13 -22 42
-76 65 -120 79 -149 133 -250 140 -260 5 -5 28 -48 51 -94 48 -92 70 -133 143
-266 48 -88 76 -141 159 -295 22 -41 47 -88 57 -105 9 -16 39 -70 65 -120 26
-49 58 -108 70 -130 13 -22 42 -76 65 -120 48 -91 65 -122 215 -400 120 -223
143 -266 240 -444 36 -68 84 -155 104 -195 56 -104 109 -202 148 -273 l35 -63
2054 0 c1300 0 2054 4 2054 10 0 5 -13 31 -28 57 -16 26 -45 80 -66 118 -84
154 -270 493 -294 534 -14 25 -37 68 -52 95 -14 28 -40 76 -57 106 -30 53
-117 212 -174 317 -15 28 -66 121 -112 205 -74 135 -193 352 -284 518 -17 30
-41 75 -55 100 -14 25 -42 77 -63 115 -20 39 -40 75 -44 80 -5 6 -32 55 -61
110 -29 55 -56 105 -60 110 -7 10 -41 72 -115 210 -21 39 -49 90 -63 115 -13
25 -52 95 -85 155 -33 61 -71 130 -85 155 -13 25 -40 74 -60 110 -19 36 -52
94 -72 130 -21 36 -61 110 -90 165 -29 55 -62 116 -73 135 -37 65 -64 115
-182 330 -65 118 -154 280 -198 360 -43 80 -95 174 -114 210 -20 36 -59 108
-88 160 -29 52 -69 126 -89 163 -20 37 -46 84 -57 104 -25 44 -192 348 -391
713 -80 146 -154 281 -165 300 -11 19 -39 71 -63 115 -24 44 -62 114 -85 155
-41 73 -79 142 -151 278 -20 37 -45 81 -54 97 -10 17 -31 55 -48 85 -16 30
-56 102 -87 160 -32 58 -76 139 -98 180 -22 41 -51 92 -63 112 -13 21 -24 40
-24 43 0 3 -23 47 -51 97 -70 126 -100 181 -144 263 -21 39 -41 75 -45 80 -4
6 -31 55 -60 110 -30 55 -66 122 -82 148 -15 26 -28 49 -28 51 0 1 -30 56 -66
122 -36 65 -84 153 -106 194 -36 66 -71 130 -173 315 -15 28 -44 79 -63 115
-19 36 -40 73 -46 83 -10 16 -321 17 -6288 17 -3452 0 -6279 -3 -6281 -7z"/>
<path d="M2907 17370 c-13 -25 -44 -81 -67 -125 -24 -44 -56 -105 -73 -135
-66 -121 -86 -159 -137 -255 -85 -161 -132 -249 -140 -260 -4 -5 -35 -64 -70
-130 -35 -66 -78 -147 -96 -180 -18 -33 -54 -100 -80 -150 -25 -49 -50 -94
-54 -100 -4 -5 -31 -55 -60 -110 -29 -55 -65 -122 -80 -150 -15 -27 -46 -86
-70 -130 -75 -140 -112 -209 -135 -250 -12 -22 -43 -78 -67 -125 -25 -47 -77
-143 -115 -215 -39 -71 -89 -166 -113 -210 -23 -44 -55 -102 -70 -130 -15 -27
-49 -90 -75 -140 -26 -49 -56 -103 -65 -120 -10 -16 -41 -75 -70 -130 -29 -55
-65 -122 -80 -150 -15 -27 -47 -86 -70 -130 -23 -44 -71 -132 -105 -195 -34
-63 -82 -151 -105 -195 -23 -44 -71 -132 -105 -195 -34 -63 -82 -153 -107
-200 -98 -183 -267 -499 -358 -665 -15 -27 -51 -95 -80 -150 -29 -55 -59 -108
-66 -119 -7 -10 -10 -26 -6 -35 3 -9 60 -108 126 -221 65 -113 126 -218 134
-235 9 -16 32 -57 52 -90 20 -33 69 -116 109 -185 40 -69 76 -132 81 -140 31
-50 100 -172 100 -177 0 -3 8 -17 19 -31 10 -15 32 -52 49 -82 16 -30 93 -165
172 -299 78 -134 150 -257 160 -275 47 -83 90 -156 118 -204 18 -29 32 -55 32
-58 0 -3 8 -18 19 -32 10 -15 27 -43 37 -62 17 -31 150 -260 174 -300 16 -25
175 -302 202 -350 14 -25 65 -112 113 -195 48 -82 99 -170 113 -195 14 -25 44
-76 67 -115 22 -38 44 -77 48 -85 4 -8 16 -28 26 -45 15 -25 231 -396 291
-500 9 -16 158 -273 330 -570 172 -297 322 -556 333 -575 31 -56 128 -223 143
-247 8 -13 15 -26 16 -30 1 -5 16 -30 33 -58 18 -27 43 -70 57 -95 14 -25 98
-171 188 -325 90 -154 177 -305 193 -335 16 -30 36 -62 43 -71 8 -8 14 -18 14
-22 0 -3 38 -70 84 -149 46 -79 93 -159 103 -178 11 -19 69 -118 128 -220 59
-102 117 -203 130 -225 29 -53 438 -758 524 -905 96 -165 219 -376 243 -419
52 -92 91 -158 107 -186 10 -16 28 -48 41 -70 34 -60 236 -408 290 -500 26
-44 67 -114 90 -155 23 -41 50 -88 60 -105 10 -16 33 -57 52 -90 121 -208 255
-440 269 -463 9 -15 27 -47 41 -72 14 -25 48 -83 75 -130 27 -47 94 -161 148
-255 54 -93 118 -204 142 -245 24 -41 47 -82 52 -90 7 -13 707 -15 6197 -16
l6189 -1 60 101 c32 56 82 139 109 186 28 47 51 87 51 90 0 3 8 16 17 30 13
20 406 699 478 825 10 17 75 129 145 250 70 121 136 234 145 250 10 17 49 84
87 150 91 156 223 383 241 415 8 14 24 41 35 62 12 20 41 69 64 110 24 40 56
96 73 123 16 28 33 57 37 65 3 8 25 47 48 85 45 74 250 429 293 505 14 25 42
74 64 109 21 34 38 65 38 67 0 3 11 21 24 42 20 32 180 307 233 402 21 36 150
260 343 590 110 189 173 298 208 360 10 19 68 118 127 220 223 381 319 546
337 580 47 87 85 151 96 162 7 7 12 15 12 19 0 4 26 52 58 106 32 54 61 105
65 113 4 8 16 29 27 47 10 18 76 130 145 250 69 120 130 225 135 233 19 32 75
126 86 146 6 11 46 81 89 155 43 74 87 149 97 167 10 18 60 104 110 190 83
143 173 299 218 377 10 17 57 98 105 180 80 137 120 206 149 260 6 11 16 27
22 35 6 8 23 35 36 60 14 25 166 288 338 585 172 297 321 553 329 568 9 16 21
36 26 46 48 81 450 774 610 1051 62 107 123 212 135 233 l22 37 -2069 0 -2069
0 -45 -77 c-25 -43 -124 -211 -219 -373 -148 -254 -235 -401 -270 -460 -5 -8
-33 -55 -61 -105 -28 -49 -60 -102 -70 -117 -11 -15 -19 -30 -19 -33 0 -3 -11
-22 -24 -43 -20 -32 -83 -139 -153 -259 -28 -48 -239 -410 -331 -567 -45 -76
-82 -140 -82 -142 0 -2 -15 -28 -34 -57 -18 -28 -91 -151 -161 -272 -70 -121
-140 -240 -155 -265 -16 -25 -38 -62 -49 -82 -35 -63 -52 -92 -243 -418 -102
-173 -194 -329 -204 -347 -60 -102 -212 -361 -231 -392 -13 -20 -26 -43 -30
-51 -4 -8 -47 -82 -95 -163 -48 -82 -88 -150 -88 -152 0 -2 -18 -32 -39 -66
-22 -35 -52 -86 -67 -114 -14 -27 -32 -57 -40 -66 -8 -8 -14 -19 -14 -22 0 -6
-17 -36 -90 -157 -30 -50 -229 -391 -251 -429 -23 -40 -132 -227 -309 -526
-25 -44 -73 -125 -105 -180 -32 -55 -94 -159 -137 -232 -43 -72 -78 -134 -78
-137 0 -3 -13 -25 -30 -49 -16 -25 -30 -50 -30 -56 0 -6 -4 -11 -10 -11 -5 0
-10 -5 -10 -10 0 -6 -17 -39 -38 -73 -21 -35 -41 -70 -45 -77 -4 -8 -15 -28
-26 -45 -10 -16 -27 -46 -38 -65 -50 -86 -151 -257 -163 -276 l-13 -21 -4121
0 -4121 0 -31 51 c-18 28 -44 73 -59 101 -16 27 -52 89 -81 138 -30 49 -54 91
-54 93 0 2 -50 87 -110 189 -61 103 -110 191 -110 196 0 5 -4 9 -10 9 -5 0
-10 5 -10 10 0 6 -53 101 -119 213 -65 111 -129 220 -141 242 -12 22 -93 162
-180 310 -87 149 -167 286 -178 305 -17 30 -79 136 -142 245 -68 116 -125 215
-140 240 -50 88 -163 281 -170 290 -4 6 -18 30 -32 55 -25 45 -72 125 -363
625 -87 149 -165 284 -175 300 -9 17 -90 155 -178 307 -89 152 -174 298 -188
325 -15 26 -30 53 -34 58 -4 6 -56 93 -115 195 -59 102 -131 226 -160 275 -29
50 -62 106 -73 125 -11 19 -40 70 -66 113 -25 43 -46 82 -46 87 0 6 -3 10 -7
10 -5 0 -13 10 -19 23 -19 39 -76 141 -88 157 -6 8 -17 25 -23 37 -7 12 -92
159 -189 325 -97 167 -185 319 -196 338 -105 184 -495 851 -509 872 -11 15
-19 30 -19 33 0 4 -23 44 -51 90 l-51 84 57 108 c63 118 106 197 172 317 24
43 43 80 43 82 0 2 22 43 48 91 27 49 70 129 97 178 49 92 92 172 140 260 15
28 48 88 72 135 25 47 58 108 73 135 15 28 47 86 70 130 24 44 55 103 70 130
15 28 46 86 70 130 24 44 55 103 70 130 15 28 76 140 135 250 59 110 122 227
140 260 33 61 62 115 143 265 25 47 56 105 70 130 13 25 43 79 65 120 98 183
116 218 142 265 15 28 44 82 65 120 40 74 220 409 275 510 17 33 58 110 90
170 32 61 61 115 65 120 4 6 29 51 55 100 25 50 54 104 64 120 10 17 46 84 81
150 34 66 66 125 70 130 4 6 35 64 70 130 34 66 70 134 80 150 10 17 41 75 70
130 29 55 57 104 61 109 5 6 9 15 9 21 0 7 -626 10 -2059 10 l-2059 0 -25 -45z"/>
</g>
</svg>
