<?xml version="1.0" encoding="utf-8"?>
<!-- Generator: Adobe Illustrator 18.1.1, SVG Export Plug-In . SVG Version: 6.00 Build 0)  -->
<svg version="1.1" id="Layer_1" xmlns="http://www.w3.org/2000/svg" xmlns:xlink="http://www.w3.org/1999/xlink" x="0px" y="0px"
	 viewBox="-227 295.5 154 20" enable-background="new -227 295.5 154 20" xml:space="preserve">
<title>id</title>
<desc>Created with Sketch.</desc>
<g id="Symbols">
	<g id="topnav" transform="translate(-520.000000, -6.000000)">
		<g id="id">
			<g transform="translate(520.000000, 5.000000)">
				<path id="bg" fill="#FFFFFF" d="M-171.9,306.6l-7.3-3.2c-0.9-0.3-2-1-2-1.8c0-0.7,0.6-1.2,1.3-1.2h6.5c0.4,0,0.9,0.2,1.2,0.8
					c0.3,0.8,1,1.2,1.9,1.2c0.2,0,0.4,0,0.6-0.1c0.5-0.2,0.9-0.5,1.1-0.9c0.3-0.4,0.3-0.9,0.1-1.3c-0.8-2.1-2.4-3.2-4.9-3.2h-6.5
					c-2.8,0-5.1,2.2-5.1,4.8c0,2.2,1.5,4,4.3,5.1l7.3,3.2c0.4,0.2,2,0.8,2,1.8c0,0.7-0.6,1.2-1.3,1.2h-7.9c-0.5,0-1.1-0.3-1.3-0.8
					c-0.3-0.8-1-1.2-1.9-1.2c-0.2,0-0.4,0-0.6,0.1c-0.5,0.2-0.9,0.5-1.1,0.9c-0.3,0.4-0.3,0.9-0.1,1.3c0.6,2.1,2.4,3.2,4.9,3.2h7.9
					c2.8,0,5.1-2.1,5.1-4.8C-167.6,309.5-169.2,307.7-171.9,306.6L-171.9,306.6z M-192.6,296.9c-1.1,0-2,0.8-2,1.9v13.6h-0.9
					c-0.2,0-0.3-0.1-0.4-0.2l-6.8-13.1c-0.8-1.4-2.3-2.2-4.1-2.2h-2.6c-1.1,0-2.1,0.8-2.1,1.8v15.8c0,1.1,0.9,1.9,2,1.9
					c1.1,0,2-0.8,2-1.9v-13.8h0.6c0.2,0,0.3,0.1,0.4,0.2l6.8,13.2c0.8,1.4,2.3,2.4,4.1,2.4h2.8c1.1,0,2-1,2-2.1v-15.6
					C-190.6,297.8-191.5,296.9-192.6,296.9L-192.6,296.9z M-73.1,313.8l-5.5-14.1v-0.1c-0.9-1.8-2.8-3.1-5-3.1
					c-2.2,0-4.1,1.2-4.9,3.1v0.1l-5.5,14.1c-0.2,0.3-0.2,0.8-0.1,1.1c0.2,0.9,1.1,1.5,2,1.5h7.6c1.1,0,1.4-1.3,0.5-1.8l-5-2.6
					l4.3-11c0.2-0.4,0.6-0.7,1.1-0.7c0.5,0,0.9,0.2,1.1,0.7L-77,315c0.3,0.8,1.1,1.2,2,1.2c0.3,0,0.5,0,0.7-0.1
					C-73.3,315.8-72.8,314.8-73.1,313.8L-73.1,313.8z M-217.3,314.1c-1-0.5-2.3-1.2-2.3-1.2v-12.2c0,0,0.9-0.5,1.8-0.9
					c0.9-0.5,0.9-1.8,0.1-2.4c-0.3-0.2-0.5-0.2-0.8-0.2h-6.3c-0.3,0-0.6,0-0.9,0.2c-0.9,0.7-0.8,2,0.1,2.4c0.9,0.4,1.9,0.9,1.9,0.9
					v12.1h-1.4c-1,0-1.9,0.9-1.9,1.8c0,1,0.9,1.8,1.9,1.8h7.5C-216.4,316.5-216.1,314.7-217.3,314.1L-217.3,314.1z M-100.9,296.6
					c-1.1,0-2,0.8-2,1.9v14h-0.9c-0.2,0-0.3-0.1-0.4-0.2l-6.8-13.1c-0.8-1.4-2.3-2.2-4.1-2.2h-2.6c-1.1,0-2.1,0.8-2.1,1.8v15.8
					c0,1.1,0.9,1.9,2,1.9c1.1,0,2-0.8,2-1.9v-13.9h0.6c0.2,0,0.3,0.1,0.4,0.2l6.8,13.2c0.8,1.4,2.3,2.4,4.1,2.4h2.8
					c1.1,0,2.1-1,2.1-2.1v-16C-98.8,297.4-99.7,296.6-100.9,296.6L-100.9,296.6z M-148.1,297.2h-15.3c-1.1,0-2,0.8-2,1.9
					c0,1.1,0.9,1.9,2,1.9h5.7v13.3c0,1.1,0.9,1.9,2,1.9s2-0.8,2-1.9v-13.3h5.6c1.1,0,2-0.8,2-1.9
					C-146.1,298.1-146.9,297.2-148.1,297.2L-148.1,297.2z M-130.1,299.7L-130.1,299.7c-0.9-1.9-2.7-3.2-4.9-3.2
					c-2.2,0-4.1,1.2-4.9,3.1v0.1l-5.5,14.1c-0.2,0.3-0.2,0.8-0.1,1.1c0.2,0.9,1.1,1.5,2,1.5h7.6c1.1,0,1.4-1.3,0.5-1.8l-5-2.6
					l4.3-11c0.2-0.4,0.6-0.7,1.1-0.7s0.9,0.2,1.1,0.7l5.5,14.1c0.3,0.8,1.1,1.2,2,1.2c0.3,0,0.5,0,0.7-0.1c1-0.3,1.6-1.4,1.2-2.4
					L-130.1,299.7z"/>
			</g>
		</g>
	</g>
</g>
</svg>
