<svg id="Layer_1" data-name="Layer 1" xmlns="http://www.w3.org/2000/svg" viewBox="0 0 436.51 152.5"><defs><style>.cls-1{fill:#fff;}</style></defs><title>django_white</title><path class="cls-1" d="M51.46,0H75.34V110.5a157.47,157.47,0,0,1-31,3.25C15.19,113.75,0,100.58,0,75.31,0,51,16.12,35.16,41.08,35.16A38.16,38.16,0,0,1,51.46,36.4V0Zm0,55.62a23.71,23.71,0,0,0-8.06-1.24c-12.09,0-19.07,7.44-19.07,20.46,0,12.71,6.67,19.69,18.91,19.69a55.72,55.72,0,0,0,8.22-.62V55.62Z"/><path class="cls-1" d="M113.31,36.87V92.2c0,19.07-1.39,28.21-5.58,36.12-3.88,7.6-9,12.4-19.53,17.67L66,135.45c10.54-5,15.66-9.3,18.91-16,3.41-6.82,4.5-14.73,4.5-35.5V36.87h23.87ZM89.44,0.13h23.87V24.62H89.44V0.13Z"/><path class="cls-1" d="M127.73,42.29a71.82,71.82,0,0,1,31.62-7.13c12.25,0,20.31,3.25,23.87,9.61,2,3.56,2.63,8.22,2.63,18.14v48.52a262.69,262.69,0,0,1-34.1,2.64c-20,0-29-7-29-22.48,0-16.74,11.94-24.49,41.23-27V59.34c0-4.34-2.17-5.89-8.22-5.89a62.52,62.52,0,0,0-28.06,7.29V42.29h0Zm37.36,38c-15.81,1.55-20.93,4-20.93,10.23,0,4.65,2.95,6.82,9.46,6.82a65.85,65.85,0,0,0,11.47-1.08v-16h0Z"/><path class="cls-1" d="M197.49,40.58c14.1-3.72,25.73-5.42,37.51-5.42,12.25,0,21.08,2.79,26.35,8.22,5,5.11,6.51,10.69,6.51,22.63v46.81H244V66.94c0-9.15-3.1-12.56-11.62-12.56a36,36,0,0,0-11,1.71v56.73H197.49V40.58Z"/><path class="cls-1" d="M277.14,125.84a54.34,54.34,0,0,0,25.58,6.35c15.65,0,22.32-6.35,22.32-21.55v-0.46c-4.65,2.32-9.3,3.25-15.5,3.25-20.93,0-34.26-13.8-34.26-35.65,0-27.13,19.69-42.47,54.56-42.47A150.69,150.69,0,0,1,361,38.72l-8.17,17.22c-6.36-1.24-.51-0.17-5.31-0.63v2.48l0.31,10.07,0.15,13c0.15,3.25.15,6.51,0.31,9.76v6.51c0,20.46-1.7,30.07-6.82,38-7.44,11.63-20.31,17.36-38.6,17.36a68.27,68.27,0,0,1-25.73-4.65v-22h0Zm47.43-71.31H322.1a26.08,26.08,0,0,0-13.8,3.41c-5.73,3.26-8.68,9.15-8.68,17.52,0,11.94,5.89,18.76,16.43,18.76a29.63,29.63,0,0,0,9-1.55V84.45c0-2.79-.15-5.89-0.15-9.15l-0.15-11-0.16-7.91V54.54h0Z"/><path class="cls-1" d="M398.06,34.85c23.87,0,38.44,15,38.44,39.37,0,25-15.19,40.61-39.37,40.61-23.87,0-38.6-15-38.6-39.22C358.53,50.51,373.73,34.85,398.06,34.85ZM397.6,95.61c9.15,0,14.57-7.6,14.57-20.77,0-13-5.27-20.77-14.42-20.77-9.46,0-14.88,7.6-14.88,20.77S388.3,95.61,397.6,95.61Z"/></svg>