<svg id="svg2" xmlns="http://www.w3.org/2000/svg" viewBox="0 0 460 180"><defs><style>.cls-1{fill:#fff;}</style></defs><title>flask_white</title><g id="layer1"><path id="path2900" class="cls-1" d="M69.12,157.32c-7.28-5.73-15.05-11.22-20.36-19a153.81,153.81,0,0,1-25.65-46C19.56,81.56,18.35,70,13.76,59.62c-4.79-7.53.82-15.77,9.07-18.16,3.67-.71,10.13-4.17,2.34-1.69-7,5.13-7.67-4.66-.5-5.28,4.89-.65,6.69-4.66,5-8.26-5.25-3.42,12.73-7.19,3.68-12.3C24,3.76,46.57,1.81,41,13.36c-1.34,8.88,15.8-1.63,11.83,8.63,4,4.93,15.13,1.12,14.86,8,5.89,0.4,7.91,5.36,13.43,5.74,5.73,2.59,16.11,4.62,18.06,11.08-5.68,4.5-18.84-9.29-19.47,3.16,1.72,18.4,1.28,37.35,8,54.86,3.18,10.61,10.9,19,17.87,27.22,6.67,8.09,15.7,13.79,24.91,18.58a102.67,102.67,0,0,0,25.59,7.92c3.57-2.73,9.87-12.88,15.44-8.6,0.26,4.81-11.05,10.06-.53,9.52,6.18-1.86,10.46,4.78,15.55-1.21,4.69,5.55,19.48-3.55,16.15,7.8-4.51,2.91-11.09,1.15-15.6,5.15-7.45-3.72-13.38,3.33-21.62,2.44A158.88,158.88,0,0,1,137.69,176c-15.23-1.2-30.78-1.71-45.27-7-8.16-2.37-16.13-7-23.3-11.67h0ZM82,162.89c8,3.45,15.76,7.08,24.5,8.17,13.86,1.93,28.17,4.89,42.07,2.19-6.29-2.84-12.8,1.11-19.07-2-7.52,1.62-15.59-.41-23.24-1.41-8.69-3.87-18.08-6.54-26.22-11.56-10.17-3.72,5.26,4.77,8,5.45,6.36,3.61-7-1.85-8.88-3.35-5.33-3-6-2.36-.53.67,1.1,0.65,2.19,1.32,3.35,1.87h0ZM66.82,152.17c7.72,2.86,0-5.43-3.57-4.95-1.57-2.72-6-4.44-2.87-5.9-5.61,1.95-5.88-7.41-8.52-6.07-5.94-1.87-2.31-8.52-9.38-12.59-0.65-4.3-7-8-9.06-14.51-0.9-3.32-7.21-12.85-3.33-4,3.3,8.54,9.11,15.85,13.94,23.15,3.75,7,8.18,14.22,15,18.56,2.3,2.21,4.53,5.6,7.78,6.29h0ZM44.57,127.75C44.84,126.58,46,130.27,44.57,127.75Zm31.5,27.86C77.78,154.84,73.61,154.64,76.07,155.6Zm4.19,1.53C79.83,155,78.35,158.31,80.26,157.13Zm5.25,2.19C88,156.94,81.66,157.82,85.51,159.32Zm9,5C96,162.09,89.65,163.49,94.5,164.33Zm-17.27-12C81.11,149.79,72.22,152.26,77.23,152.3Zm3.94,2C81.06,152.93,79.77,154.85,81.17,154.26Zm19.67,12.28c3.16,2,18.47,4.37,8.88.82C108.13,167.69,92,162.78,100.84,166.54ZM69.61,142.21C69.3,140.88,64.7,140.74,69.61,142.21Zm9.16,5.34C81.15,145.89,73.82,146.27,78.77,147.55Zm7.7,4.72C89.89,151,80.92,151,86.47,152.27ZM65.88,138.15c3.71,2.85,15,.36,5.68-1.7-4.23-2.25-13.75-3.79-7.26,1.36l1.57,0.34h0Zm25.81,15.75C93.24,151.27,85.21,152.4,91.69,153.91Zm-7.84-6.23c9.08,2.57-7.63-5.74-2.24-.94l1.2,0.54,1,0.4h0Zm15.72,9.09c8.59,0.08-7.76-1.18,0,0h0Zm-37-23.58C62.24,131.58,60.46,133.31,62.58,133.18Zm51.54,31.74C114.34,162,111.31,167.07,114.11,164.92ZM77.24,142.16C76.72,140.64,74.56,142.1,77.24,142.16Zm-13.85-10C68.33,131.88,56.64,130,63.39,132.18ZM47,121.57C46.37,119.2,41.61,117.32,47,121.57Zm43.08,27.34C89.16,147.88,89.64,149.13,90.06,148.91Zm26.81,16.45C116.79,163.79,115.41,166,116.87,165.36ZM87.69,146.46C88.17,144.43,83.48,145.84,87.69,146.46Zm-20-12.66C71.38,133.4,61.83,131.32,67.71,133.8Zm33.79,21C107.22,152.53,95.93,153.69,101.5,154.8ZM83.93,142.86c6.59,0.85-7.84-4.48-1.45-.48l1.45,0.48h0ZM106.84,157c6.16-3.68,4.13,8.62,10.44,1,6.23-4.55-5.38,5.62,2.3.81,5.55-3.71,13.76,1.76,18.94,3.55,3.73-.18,7.35,3.22,11.17,1.15,7.35-2-14.38-2.94-8.68-6.45-6.73,2-11.7-2.33-15-6.65-7.55-1.74-16.28-5.6-20-12.28-1.54-2.51,2.22.35-1.33-3.75-4.55-4-6.82-8.64-9.87-13.56-3.65-1.95-4.07-7.67-4.44-.19,0-4.72-4.4-7.9-5.49-6.58,0-4.55,4.74-2.27,1.41-5.63-0.72-4.71-3.08-9.62-3.79-14.95-1.1-2.57-.16-8.06-3.77-2.25-1.32,6.14-.44-7.54,1.61-3,2.69-4.6-1-4.06-1.11-3.42,1.75-3.88,1.11-9.39-.46-7.29,0.93-4.12,1.47-15.15-1.4-13.19,1.74-4.3,3.3-19.69-4.25-13.83a32.07,32.07,0,0,0-10.86,2.36c7.85,4.33-.79,1.56-4,0.87-0.42,4-3.58,2.27-7.54,2.31,6.32,0.78-3.08,6.46-6.7,4.25-4.71,2.25,4.06,7.86.09,9.6,0.49,2.62-7.21-.94-6.6,5.1C32.92,73,36.86,82.12,39.14,79c7.77,2.1,5.47,6.9,5.67,11.45-1.27,2.65-6.25-6.24-1.11-5.83-4.05-6.59-4.49-2.38-7.85.68-0.78.22,8.59,4.35,2.71,6.4,5.18,0.8,5.33,5.33,6.38,8.2,3.11,3.24,2.48-3.58,6.2.32-2.36-3.47-12.48-9.78-4.33-7.76,0-3.49-1.47-6.31,1-6.24,2.47-4.48-2.59,11,3,5.35,1.54-.67,1.93-4.48,4.7.36,4,4,1.46,6.84-4.23,3.21,1,3.45,7.6,4.68,6.37,10.08,1.31,4.74,3.15,3,4.75,2.72,1.26,4.61,2,1.22,2-1,5.75,1.23,4.4,4.63,6.2,7,4,1.79-5.67-12.12,1.13-4.18,7.15,6.46,2.68,9.15-3.74,8.12,4.06-.33,5.37,5.49,10.46,5.29,4.63,2.2,7.77,10.67-.22,7.15-2.77-2.5-12.58-5.58-4.57-.83C81.08,133,87,135,94.09,139.32c5.11,3.64,7.31,7.82,9.25,8.65-4.29,2-12.93-1.64-6.52-2.77-4-.73-8.5-2.75-4.67,2.23,3.26,2.72,11.55,2.43,13,2.74-1.26,2.77-3.42,3,.05,3.21-3.87,2.06,1.24,2.38,1.6,3.56h0Zm-7.92-22.37c-2.36-2.46-3-7.08-.42-3.06,1.31,0.52,4.19,7.54.42,3.06h0ZM124.72,151C126.19,150.87,124.76,152.09,124.72,151ZM95.2,128.54C95.11,124.81,96,131.41,95.2,128.54Zm-2.56-3.45C89.67,119.36,96.37,126.71,92.63,125.09ZM61.56,103.64C63.3,103.18,62.42,106.62,61.56,103.64ZM86.29,117C87.36,113,87.55,120.42,86.29,117ZM68.82,104.9C67.59,102.68,71.4,107,68.82,104.9Zm15,4.81c-2.81-6.29,2-3.44.62,1l-0.62-1h0ZM58,92.46c-1.26-2.06-3.33-8.12-2.66-10,0.6,3,6.4,13,2.84,4.12-3.93-7.41,4.7,2.4,5.59,4.25,0.41,1.84-2.43-.5-0.5,3.81C59.72,89.77,61.15,97.39,58,92.46ZM50,87C50.3,82.16,51.8,90.25,50,87Zm3.59,1.24C55.28,84.57,56.47,93.25,53.56,88.19Zm-8.65-6.69c-3-3-5.13-5.68.14-1.83,2,0.08-4.51-6.2.49-2C50.8,78.64,48.14,86.3,44.92,81.51Zm4.54-.12C51.18,79.68,50.37,83.07,49.46,81.39Zm2.79,0.9C49.63,77.37,55.43,84.34,52.25,82.28ZM46.7,77c-8.65-7.7,10.87,4,1.41,1.43L46.7,77h0Zm24.78,14.4c-3.74-2.24-1-15.8.28-6.53,3.64-1.18-.2,4.79,2.51,4.73C73.84,93.34,72.63,94.69,71.48,91.37Zm9.17,5.42C81,92.7,81.41,99.58,80.64,96.79ZM79,95.22C79.46,93.47,79.09,97.27,79,95.22ZM48.39,74.45C42.84,66.78,64.54,82.2,52,76.39,50.64,76,49.05,75.92,48.39,74.45ZM66,83.8c-0.53-6.45,1.17,1.07,0,0h0Zm13.4,8.6C80.48,88.72,79.52,94.83,79.44,92.4ZM49.24,71.52c3.3-.71,13.68,5.8,4.15,1.86C52.33,72.21,50.08,72.74,49.24,71.52ZM77.6,85.65c0.35-6.6,2-3.94,0,.94V85.65h0ZM51.7,69.22c1.35-2-3.57-8.92.71-2.49,1.85,1.47,5.36,2.46,2.26,3.08C59.54,74.1,53.48,71,51.7,69.22ZM76.2,83.59C77.13,76.07,77,88,76.2,83.59ZM48.89,62.28C49.92,61.84,49.43,63.65,48.89,62.28Zm6.39,3.8C56.93,62.63,58.32,69.93,55.28,66.08Zm18,10C73.29,74.78,73.65,78,73.31,76.11Zm-1-2.31C69.76,67.63,74.59,77.06,72.26,73.8Zm-1.54-4c-0.42-2.55,1.43,3.2,0,0h0Zm2.5-4.06c-1.72-3,2.17-13.33,2.6-6.94-1.81,5-.52,7.77.74,1.09,2.33-5.26-.5,10.37-3.34,5.85h0Zm2.57-15.33C76.54,49.44,76,51.47,75.79,50.36ZM71.5,134.89C70.49,134,71.63,135.46,71.5,134.89Zm8.84,4.47c4.92,1.26,4.89-.76.45-1.37-2.39-2.22-9.93-4.58-3.18-.28,0.45,1.13,1.86,1.11,2.73,1.64h0ZM62.89,127.77c2.71,2,10.2,5.72,3.86.77,2.14-2.48-4.09-3.81-2-5.47-5.26-3.22-4.15-2.93-.46-2.83-6.32-2.82.91-2.61,0.57-4.06-2.44-.48-12.1-4.3-6.42.31-5.78-2.95-1.38,1.1-3.12.67-5.91-1.61,5.26,4.5-.94,3,3.39,2.69,9.13,6.88,1.43,2.84-1,1.46,5.51,3.67,7.11,4.78h0Zm9.24,5.31C83.37,136.7,66.62,128.66,72.13,133.08Zm47.32,28.66C119.59,159.52,117.91,163.65,119.45,161.75Zm4.86,2c2.59-2.51.11,4,4.3-.62,0-3.31-.13-5.26-4.82-1.24-1.29.72-1.87,3.76,0.52,1.86h0Zm-77.2-48.48C46.32,112.18,41.53,112.2,47.11,115.31Zm5.19,3.4C50.38,115.52,45.42,115.82,52.3,118.71Zm29.54,17.82c2.88,2.56,13.25,1.88,3.5.32C83.91,134.71,76.19,135.23,81.85,136.53Zm40.61,25.08C126.9,157.89,118.16,163.27,122.46,161.61Zm9.23,6.34C131.72,166.76,129.78,168.48,131.69,168Zm0-1.67c4.92-5.21-4.76.31,0,0h0ZM34.34,104.62c-4.19-6-2.6-8.67-6.65-13.55-0.76-3.73-6.93-12.2-3.19-3.23C27.93,93.09,29,101.22,34.34,104.62Zm95.83,60C139.21,158.78,126.45,162.08,130.17,164.63Zm6.9,2.7C141.6,163.44,134.2,166.52,137.07,167.33ZM45.57,108.7C46.87,106.78,42.22,108.46,45.57,108.7Zm90.06,56.78c4.39-2.83-1-2.39-.79.26l0.79-.26h0ZM76.11,128C76,126.07,73.8,128.14,76.11,128Zm3.68,2.12C78.62,127.73,78,130.46,79.79,130.09Zm62.87,37.31c5.62-4.05-3.41-.78-1.18.77l1.18-.77h0Zm-2.15-1C145.09,162.52,135.68,168.06,140.51,166.36Zm11,7.32C154.58,171.62,147.77,173,151.5,173.68ZM48.39,107.31c4.12,0.92,16.46,10.14,9.18.64-3.73-1.1-1.49-10.22-5.3-8.61,2.55,4.26,2.1,6.08-3.26,3.39-6.74-3.29-3.79,1.63-2.47,3-1.79.41,2.37,1.56,1.85,1.59h0ZM29.62,92.49c0.74-3-6.79-16.78-3.55-6.88C27.24,87.69,27.12,91.62,29.62,92.49Zm34.44,21.24C61.95,112,64,113.48,64.07,113.73Zm5.22,1.22C69.29,111.71,63.52,113.63,69.29,114.94Zm45.26,28.53c-0.86-2.21-3.41-.05,0,0h0Zm2.17,1.59C116.41,143.83,115.47,145.3,116.73,145.06Zm17.94,11.3C136.39,155.09,132.51,156.2,134.67,156.36ZM39,94.89C43.93,93,33.71,93.52,39,94.89ZM110.57,140C110.51,136.78,107.42,140.77,110.57,140ZM37,90.34C40.22,89.27,34.12,89.64,37,90.34Zm9.2,4.46C46.19,93.75,45.28,95.2,46.25,94.8Zm112.23,68.82c4.08-.83,13.37,2.07,14.87-1.08-5-.12-17.13-3.49-17.7.8l1.08,0.17,1.75,0.11h0ZM49.17,95.54C49.25,92.3,46.65,95.42,49.17,95.54ZM25,78.75C23.88,72.59,20.8,77.82,25,78.75Zm5.77,1.45C30.82,78.22,25.47,78.42,30.75,80.2ZM34,81.82C33.09,81.05,33.3,82.8,34,81.82ZM54.79,95.13C55.77,94.23,52.48,94.47,54.79,95.13Zm-22.94-17C31.29,73.51,25.17,77.47,31.85,78.17ZM20,70.5C19.86,68.35,18.87,71.31,20,70.5Zm1.76-1.33C21.5,66.62,20.27,69.49,21.78,69.17ZM31.5,75c4.11-1.61-7.49-3.34-.84-0.31Zm130.1,80.36C164.23,152.92,158.26,154.58,161.6,155.33Zm15.72,8.15C178.37,160.36,174.66,163.89,177.32,163.48ZM32.5,69.88C32.93,66.86,29.24,70.47,32.5,69.88ZM18.67,60.61c-0.74-4.26-.64-11.74,6.47-9.21-9.49,1.88,6.57,11.79,4.54,4,4,0.2,7.8-2.36,5.71,1.52,7.86-.87,13.31-7.68,20.9-6.73,5.91-.78,12.38-1.38,18.75-3.76,5.24-.38,10.28-6,7.41-9.36-7.14-.6-14.62.29-22.52,1.86-8.75,1.82-16.7,5.28-25.53,6.76-8.61,1.16,1.73,3.19-.73,3.64-4.49,1.56,5.36,2.61-.58,4.25-3.67-.7-7.48-2-5.92-5.82-8.24,1.07-15.49,4.49-9,12.88h0.48ZM38.53,50.49c1.93-7.12,10.36,5.86,3.17.95A4.49,4.49,0,0,0,38.53,50.49ZM38.91,47C41.7,45,40.39,48.21,38.91,47Zm3.54,0.06c0.25-3.28,8.11,1.73,1.3,1.18l-1.3-1.18h0Zm4.85-1.95C49.06,43.08,47.8,47,47.29,45.15Zm1.24-.83c2.95-3.54,16.69-2.26,6.63-.35C52.47,41.94,50.4,45.17,48.53,44.32Zm17.93-2.76C66,31.88,75.37,45,66.46,41.55Zm5.09,0c1.86-4.87,7.22-2,.86-1C72.55,41.07,72.23,43.06,71.55,41.53ZM30.49,67.37c5.56-3.4-5.9-3,0,0h0Zm4.11,1.14C36.55,66.44,30.37,67.68,34.6,68.52ZM22.49,59.92C25.67,57.48,18.73,59,22.49,59.92Zm164.1,102.66C186.69,159.75,184.17,163.86,186.59,162.59Zm-16.67-11.38C170.39,147.95,167.78,151.49,169.92,151.21Zm21.26,12.48c4.44,0,13.45-1.38,3.79-1.37-1.52.24-8.83,0.19-3.79,1.37h0Zm-153-97.16c3.59-.25,5.62-4-0.69-3.75-9.79-1,8.64,3.35-1.26,2.1C34.93,65.75,38.14,66.76,38.21,66.52Zm3.16,1.6C41,65.81,40.27,69.35,41.38,68.12Zm3.75-10C46.69,56.18,43,57.59,45.13,58.11Zm-12-20C39.6,36,48.37,33.5,51.39,39.21c-3.08-3.71-1.24-7.36,1.67-1.94,4.12,5.49,6.18-2.5,3.5-4.34,3.05,3.79,6.52,5.58,2,.24,4.87-5.85-9.74.77-13.06,0.7C43.94,34.59,29,37.67,33.18,38.14Zm3.76-7.2c3.66-2.76,12.65,1.64,6.88-2.74C43.26,27.7,31.18,31.52,36.94,30.94Zm13.33,0.55c4.28,0.11-1.85-5.75,3.25-3.1-0.84-2.74-5.94-3.25-8.43-4.34C43.69,26.55,48,31.52,50.27,31.49Zm-11-12.1C40.76,17.38,36.68,20.4,39.28,19.38Zm5.45,1.3c6.9-.91-1.76-3-1.39-0.07l1.39,0.07h0Zm-10.18-8c-4.86-6.34,9.13,1.07,4.2-5.57C34.6,3.85,30.61,10.88,34.55,12.73ZM96.88,46.3c2.23-3.95-9.2-5.32-1.5-1.4C96.09,45.14,95.93,46.57,96.88,46.3Z"/><g id="text3850"><path id="path2830" class="cls-1" d="M202,19.06q-1.2,4.71-1.48,15.82,0,2.18-2,2.18a2.76,2.76,0,0,1-2.74-1.9,24.91,24.91,0,0,0-4-7.17,9.64,9.64,0,0,0-6-2.88q-4-.63-20-0.63-3.66,0-4.78.77a2.47,2.47,0,0,0-.7,2.11V59.21q0,1.62,2,1.55,6.26-.07,18.14-0.84a4.11,4.11,0,0,0,3.13-1.51q0.81-1.23,1.58-6.36,0.49-2.81,3.3-2.18,2.39,0.49,2,2.18-2,9.56-1.27,24.89,0.07,1.83-2.32,2-2,.21-2.46-2.11-1.83-8.79-6.79-9.39a151.88,151.88,0,0,0-16.14-.6q-1.27,0-1.27.91V99.36q0,3.52,2.6,4.78,2,1.05,8.79,1.9,3.45,0.35,3,3-0.42,2.32-6.19,1.83-16.66-1.34-27.49.14-3,.42-3-2.46,0-1.83,3-2.11,6.89-.77,6.89-12.09V34.18q0-4.64-1.65-7.14t-6.15-4.54q-2.81-1.27-2.11-3.45a1.71,1.71,0,0,1,1.13-1.48,12,12,0,0,1,3.73.28q4.43,0.7,20.88.7,19.41,0,33.54-.84,4.71-.28,4.71.77a2.32,2.32,0,0,1-.07.56h0Z"/><path id="path2832" class="cls-1" d="M247.73,108.43q0,2.81-3.16,2.46a139.65,139.65,0,0,0-24,.28q-2.88.28-3.55-.14t-0.67-2.32q0-1.69,3.83-2.85T224,98.94V35.31q0-5.7-1.65-8.37a10.71,10.71,0,0,0-5.8-4.15q-2.18-.77-2.18-2.18,0-2.11,3.16-3.16a44.37,44.37,0,0,0,9.91-4.78q4.22-2.53,5.34-2.53,2.6,0,2.6,3.59,0-.28-0.28,7-0.21,7-.14,13.71l0.28,62.79q0,4.29,2.11,6.22t7.24,2.57Q247.73,106.39,247.73,108.43Z"/><path id="path2834" class="cls-1" d="M311.86,103.72q0,1.48-5.38,4.46t-8.61,3A6.11,6.11,0,0,1,293,108.5q-2.11-2.67-3-2.67-0.63,0-6.68,2.88a28,28,0,0,1-12.16,2.88,14.12,14.12,0,0,1-9.63-3.37,12.82,12.82,0,0,1-4.22-10.12q0-12.16,27.84-17.44,4.78-.91,4.85-3.87l0.14-4.5q0.42-11.53-10.2-11.53-3,0-5.73,5.41T266.51,72q-5.77.56-5.77-4.85,0-3.37,8.58-7.88a37.29,37.29,0,0,1,17.3-4.71q14.27,0,14.13,13.57l-0.28,29q-0.07,4.57,3.87,4.57a22.8,22.8,0,0,0,3-.35q2.18-.35,2.53-0.35,2,0,2,2.74h0Zm-21.66-16a2.45,2.45,0,0,0-.81-2.32,3.94,3.94,0,0,0-2.78-.21q-16.95,3-16.95,11t8.79,8.09a21.4,21.4,0,0,0,7.24-1.34q4.36-1.55,4.36-3.73Z"/><path id="path2836" class="cls-1" d="M364.31,95.35a14.15,14.15,0,0,1-5.73,11.85q-5.73,4.39-15.64,4.39a63.36,63.36,0,0,1-13.22-1.41q-5.7-1.27-6.61-2.32-0.56-1-.56-9.63,0-3.73,1.69-3.87t2.88,1.83q5.27,9.21,17,9.21,9.91,0,9.91-6.89a6.56,6.56,0,0,0-2.25-5.06q-2.46-2.32-9.56-5.41Q332,83.47,328.52,80q-3.73-3.66-3.73-9.84a13.74,13.74,0,0,1,5.84-11.81q5.41-4.08,14.48-4.08a54.78,54.78,0,0,1,10.41.91q5.06,0.91,5.27,2.25,0.56,3.94,2.32,11.39,0.21,0.91-2,1.48t-3.09-.77Q352.5,60.48,344,60.48q-9.63,0-9.63,6.19a6.61,6.61,0,0,0,2.6,5.48q2.32,1.76,10.9,5.48,9,3.87,12.23,7Q364.31,88.6,364.31,95.35Z"/><path id="path2838" class="cls-1" d="M445.87,108q0,2.46-3.3,2.6-4.92.07-12.87,0.7-3.94.77-5.62-1a145.89,145.89,0,0,1-18.84-25,1.85,1.85,0,0,0-1.62-1.12q-1.2,0-4.15,2.11a5.7,5.7,0,0,0-3.3,5.2q0,2.39.14,6.89t2.25,5.91q1.48,1,6.82,1.55,3.3,0.42,3.3,2.46a2.56,2.56,0,0,1-.53,2,5.09,5.09,0,0,1-2.78.18q-7-.63-23.77.7-4.22.35-4.57-1.05a5.4,5.4,0,0,1-.14-1.41q0-2.18,4.29-3.3,3.87-1,3.87-9.07V34.88q0-5.77-1.12-8-1.55-2.88-6.47-4.5-2.32-.77-2.32-2.18,0-2,3.3-3.16a44.14,44.14,0,0,0,10.05-4.85q3.87-2.53,4.78-2.53,2.88,0,2.88,3.66,0-.49-0.07,7Q396,25.39,396,34l0.14,44q0,1.83,1,1.83t3.23-1.83q5.84-4.57,14.34-12,1.69-1.76,1.69-2.81,0-1.9-5.7-2.67a2.33,2.33,0,0,1-2.32-2.74q0.21-2.46,2.46-2.11a122,122,0,0,0,14.77.77q6.75,0.07,13.43.07,2.18,0.07,2.18,2.6t-3.45,2.6a26.08,26.08,0,0,0-10.2,2.46q-6.68,3-14.27,10.62a1.27,1.27,0,0,0-.56,1.05q0,1,2.39,4.71,8.79,13.36,16.59,20.18,5,4.29,9.35,4.29a10.23,10.23,0,0,1,4,.46q0.77,0.46.77,2.43h0Z"/></g><g id="text2870"><path id="path2877" class="cls-1" d="M257.36,132.51a1.19,1.19,0,0,1-.94.51,1.77,1.77,0,0,0-1,1.12q-2.46,5.47-4.4,8.82a0.19,0.19,0,0,1-.21.07,0.26,0.26,0,0,1-.21-0.1q-0.33-.49-1.68-3.43a20.35,20.35,0,0,0-1.34-2.71,13.26,13.26,0,0,0-1.46,2.61q-1.49,2.91-1.76,3.32a0.17,0.17,0,0,1-.19.08,0.27,0.27,0,0,1-.23-0.11q-1-1.56-4.59-8.53a2.06,2.06,0,0,0-.92-1,1.56,1.56,0,0,1-.87-0.56,0.45,0.45,0,0,1,.59-0.48,15.92,15.92,0,0,0,4.62-.11q0.45-.08.45,0.3a0.68,0.68,0,0,1-.62.68,0.81,0.81,0,0,0-.81.6,2.41,2.41,0,0,0,.19.77q0.49,1.27,1.48,3.23a7.19,7.19,0,0,0,1.15,2,11.22,11.22,0,0,0,1.16-2,13.82,13.82,0,0,0,1.05-2.26,2.32,2.32,0,0,0-.36-1.15,1.85,1.85,0,0,0-1-1.08,1.13,1.13,0,0,1-.9-0.62q0-.55.62-0.45a14.74,14.74,0,0,0,4.46-.11q0.45-.08.45,0.27a0.66,0.66,0,0,1-.67.64,0.81,0.81,0,0,0-.79.81,2,2,0,0,0,.18.74q2.11,5.15,2.43,5.15a9.43,9.43,0,0,0,1.09-2,26.82,26.82,0,0,0,1.45-3.46,0.4,0.4,0,0,0,0-.15,1.09,1.09,0,0,0-.92-0.92,0.83,0.83,0,0,1-.71-0.52,0.32,0.32,0,0,1,.45-0.37,14.84,14.84,0,0,0,2.21.21,14.1,14.1,0,0,0,2,0q0.56-.07.56,0.31h0Z"/><path id="path2879" class="cls-1" d="M269.47,140.27q0,0.59-1.59,1.46a7.73,7.73,0,0,1-3.71,1,4.82,4.82,0,0,1-3.47-1.35,5,5,0,0,1-1.5-3.83,5.8,5.8,0,0,1,1.68-4.35,5.32,5.32,0,0,1,3.86-1.53,4.2,4.2,0,0,1,2.53.86,3.69,3.69,0,0,1,1.39,1.75,0.51,0.51,0,0,0,.37.38,0.42,0.42,0,0,1,.36.48q0,0.56-1.34,1l-6.3,1.87q0.62,3.25,3.34,3.25a7.42,7.42,0,0,0,3.58-1.15,1.15,1.15,0,0,1,.59-0.18Q269.47,139.87,269.47,140.27Zm-3.24-5.48a1.75,1.75,0,0,0-.61-1.32,2.11,2.11,0,0,0-1.5-.57q-2.52,0-2.52,3.62v0.33l3.72-1.12A1,1,0,0,0,266.23,134.78Z"/><path id="path2881" class="cls-1" d="M283.3,136.42a6.07,6.07,0,0,1-1.89,4.54,5.93,5.93,0,0,1-4.29,1.76,10.11,10.11,0,0,1-2.94-.46q-1.48-.45-1.49-0.82t0-2.2q0-2.31,0-3.36,0-1.59,0-4.6t0-4a2.22,2.22,0,0,0-.3-1.35,2.16,2.16,0,0,0-1.19-.52,0.46,0.46,0,0,1-.36-0.45,0.63,0.63,0,0,1,.53-0.48,12.76,12.76,0,0,0,1.9-.92,3.75,3.75,0,0,1,1.12-.51q0.42,0,.42.7s0,0.51,0,1.42,0,1.73,0,2.61l0,4.73q0,0.67.46,0.38a6.76,6.76,0,0,1,3.42-.94,4.61,4.61,0,0,1,3.34,1.24,4.29,4.29,0,0,1,1.29,3.23h0Zm-2.19,1.22a4.54,4.54,0,0,0-1-3.08,3.05,3.05,0,0,0-2.39-1.13,4,4,0,0,0-1.91.51,1.41,1.41,0,0,0-.94,1.07v3.66q0,2.64,2.91,2.64a3.22,3.22,0,0,0,2.45-1,3.74,3.74,0,0,0,.93-2.69h0Z"/><path id="path2883" class="cls-1" d="M305.42,141.22a0.52,0.52,0,0,1,.05.18,2.57,2.57,0,0,1-1.39.94,8.57,8.57,0,0,1-1.9.75,1.14,1.14,0,0,1-.57-0.83,1.68,1.68,0,0,0-.44-0.83l-1.55.72a6.4,6.4,0,0,1-2.37.72,4.33,4.33,0,0,1-3.13-1.3,5.74,5.74,0,0,1-1.6-4.33,5.25,5.25,0,0,1,1.89-4,5.11,5.11,0,0,1,3.4-1.49,16.6,16.6,0,0,1,2.94.31q0.53,0.1.53-.31V127a1.41,1.41,0,0,0-.38-1.12,3.85,3.85,0,0,0-1.16-.52,0.56,0.56,0,0,1-.44-0.53,0.62,0.62,0,0,1,.59-0.51,12.17,12.17,0,0,0,1.93-.82,4,4,0,0,1,1.15-.49q0.51,0,.51.7s0,0.44,0,1.36,0,1.81,0,2.67v12.43a0.66,0.66,0,0,0,.7.78,4,4,0,0,0,.7-0.08,0.52,0.52,0,0,1,.64.31h0Zm-4.22-1.35V135a1.74,1.74,0,0,0-1.07-1.24,4.68,4.68,0,0,0-2.46-.68q-2.86,0-2.86,3.53a4.83,4.83,0,0,0,1.13,3.23,3.4,3.4,0,0,0,2.67,1.34,3.83,3.83,0,0,0,1.64-.46A1.41,1.41,0,0,0,301.19,139.87Z"/><path id="path2885" class="cls-1" d="M317.27,140.27q0,0.59-1.59,1.46a7.73,7.73,0,0,1-3.71,1,4.82,4.82,0,0,1-3.47-1.35,5,5,0,0,1-1.5-3.83,5.8,5.8,0,0,1,1.68-4.35,5.32,5.32,0,0,1,3.86-1.53,4.2,4.2,0,0,1,2.53.86,3.69,3.69,0,0,1,1.39,1.75,0.51,0.51,0,0,0,.37.38,0.42,0.42,0,0,1,.36.48q0,0.56-1.34,1l-6.3,1.87q0.62,3.25,3.34,3.25a7.42,7.42,0,0,0,3.58-1.15,1.15,1.15,0,0,1,.59-0.18Q317.27,139.87,317.27,140.27ZM314,134.78a1.75,1.75,0,0,0-.61-1.32,2.11,2.11,0,0,0-1.5-.57q-2.52,0-2.52,3.62v0.33l3.72-1.12A1,1,0,0,0,314,134.78Z"/><path id="path2887" class="cls-1" d="M332.27,132.49a1.08,1.08,0,0,1-.86.53,1.73,1.73,0,0,0-1,1.12q-0.67,1.61-2.34,4.73-1.41,2.64-2.17,3.86a0.15,0.15,0,0,1-.18.08,0.27,0.27,0,0,1-.21-0.11,59.7,59.7,0,0,1-5-8.53,1.75,1.75,0,0,0-.86-1,1.09,1.09,0,0,1-.79-0.56,0.42,0.42,0,0,1,.53-0.48,16.42,16.42,0,0,0,2.47.05,15.81,15.81,0,0,0,2.23-.16,0.28,0.28,0,0,1,.4.3,0.62,0.62,0,0,1-.56.62q-1.07.29-1.07,0.74a1.92,1.92,0,0,0,.14.59,33.2,33.2,0,0,0,1.67,3.32,9.32,9.32,0,0,0,1.37,2.17,10.27,10.27,0,0,0,1.16-2.08,33.81,33.81,0,0,0,1.57-3.55,0.72,0.72,0,0,0,.07-0.3,1,1,0,0,0-.66-0.87,0.85,0.85,0,0,1-.64-0.49q0-.48.42-0.4a18.24,18.24,0,0,0,1.93.16,15.74,15.74,0,0,0,1.79,0q0.51-.1.51,0.29h0Z"/><path id="path2889" class="cls-1" d="M344.39,140.27q0,0.59-1.59,1.46a7.73,7.73,0,0,1-3.71,1,4.82,4.82,0,0,1-3.47-1.35,5,5,0,0,1-1.5-3.83,5.8,5.8,0,0,1,1.68-4.35,5.32,5.32,0,0,1,3.86-1.53,4.2,4.2,0,0,1,2.53.86,3.69,3.69,0,0,1,1.39,1.75,0.51,0.51,0,0,0,.37.38,0.42,0.42,0,0,1,.36.48q0,0.56-1.34,1l-6.3,1.87q0.62,3.25,3.34,3.25a7.42,7.42,0,0,0,3.58-1.15,1.15,1.15,0,0,1,.59-0.18Q344.39,139.87,344.39,140.27Zm-3.24-5.48a1.75,1.75,0,0,0-.61-1.32,2.11,2.11,0,0,0-1.5-.57q-2.52,0-2.52,3.62v0.33l3.72-1.12A1,1,0,0,0,341.15,134.78Z"/><path id="path2891" class="cls-1" d="M352.84,142.17a0.46,0.46,0,0,1-.62.48,27.15,27.15,0,0,0-4.68.05,1.43,1.43,0,0,1-.69,0,0.53,0.53,0,0,1-.13-0.45,0.83,0.83,0,0,1,.75-0.55,1.21,1.21,0,0,0,.75-1.35V127.95a3.18,3.18,0,0,0-.32-1.63,2.08,2.08,0,0,0-1.13-.81,0.5,0.5,0,0,1-.42-0.42,0.71,0.71,0,0,1,.62-0.62,8.63,8.63,0,0,0,1.93-.93,3.18,3.18,0,0,1,1-.49q0.51,0,.51.7s0,0.42-.05,1.37,0,1.79,0,2.67L350.41,140a1.57,1.57,0,0,0,.41,1.21,2.56,2.56,0,0,0,1.41.5q0.62,0.07.62,0.46h0Z"/><path id="path2893" class="cls-1" d="M366.09,137.05a5.3,5.3,0,0,1-1.76,4,6.16,6.16,0,0,1-4.37,1.65,5.73,5.73,0,0,1-4.13-1.45,5,5,0,0,1-1.46-3.76,5.26,5.26,0,0,1,1.85-4.07,6.21,6.21,0,0,1,4.28-1.6,5.74,5.74,0,0,1,4.16,1.44A5,5,0,0,1,366.09,137.05Zm-2.41.83a5.53,5.53,0,0,0-1-3.49,3.12,3.12,0,0,0-2.57-1.3,3,3,0,0,0-2.37,1,3.58,3.58,0,0,0-.92,2.48,5.66,5.66,0,0,0,1.07,3.66,3.16,3.16,0,0,0,2.57,1.2,3,3,0,0,0,2.38-1A3.78,3.78,0,0,0,363.69,137.89Z"/><path id="path2895" class="cls-1" d="M380.38,136.68a6,6,0,0,1-1.72,4.34,5.38,5.38,0,0,1-4,1.78,7.39,7.39,0,0,1-2.67-.49q-0.14-.05-0.14.67v4.12q0,1,1.63,1.29a3.66,3.66,0,0,1,1,.25,0.42,0.42,0,0,1,.2.39q0,0.46-.62.42a23.62,23.62,0,0,0-5,.14,1.06,1.06,0,0,1-.56,0,0.43,0.43,0,0,1-.11-0.37,1.12,1.12,0,0,1,.78-0.56,1.25,1.25,0,0,0,.67-1.31V135.29a1.81,1.81,0,0,0-.81-1.83,1.45,1.45,0,0,1-1-.7,0.59,0.59,0,0,1,.56-0.45,5.56,5.56,0,0,0,1.49-.63,2.79,2.79,0,0,1,.78-0.37,0.87,0.87,0,0,1,.67.75,2.61,2.61,0,0,0,.51,1.09l1.18-.64a5.06,5.06,0,0,1,2.46-.7,4.74,4.74,0,0,1,3.23,1.11,4.68,4.68,0,0,1,1.52,3.76h0Zm-2.32,1.09a5,5,0,0,0-1.11-3.47,2.73,2.73,0,0,0-2.12-1,2.94,2.94,0,0,0-1.8.66,2.78,2.78,0,0,0-1.13,2.37v3.87a1.36,1.36,0,0,0,1,.78,6.46,6.46,0,0,0,2.43.45q2.69,0,2.69-3.61h0Z"/><path id="path2897" class="cls-1" d="M405.08,142.19a0.36,0.36,0,0,1-.42.42,32.91,32.91,0,0,0-5.2,0,0.43,0.43,0,0,1-.53-0.48q0-.41.72-0.44,0.92-.05.92-1.49v-3.64q0-3.06-2.49-3.06a5.94,5.94,0,0,0-2.41.48,1.36,1.36,0,0,0-1,.85l-0.05,5.43a2.06,2.06,0,0,0,.21,1.12,1.07,1.07,0,0,0,.67.27q1.2,0.21,1.2.51a0.65,0.65,0,0,1-.07.36,0.56,0.56,0,0,1-.49.12q-1.56-.05-4.54.05a1.09,1.09,0,0,1-.55-0.07,0.44,0.44,0,0,1-.12-0.38q0-.36.78-0.44t0.85-1.54v-3.72a3.53,3.53,0,0,0-.68-2.32,1.89,1.89,0,0,0-1.53-.74,5.37,5.37,0,0,0-2.46.55,1.57,1.57,0,0,0-1.09,1.18v5a1.38,1.38,0,0,0,.44,1.18,2.8,2.8,0,0,0,1.44.37q0.56,0,.56.38a0.38,0.38,0,0,1-.45.4,44.8,44.8,0,0,0-4.95.19,1.54,1.54,0,0,1-.67,0,0.35,0.35,0,0,1-.12-0.33,1.11,1.11,0,0,1,1-.59q0.62-.16.62-1.6V136q0-1.6-.86-1.85a4.94,4.94,0,0,1-.88-0.3,0.34,0.34,0,0,1-.16-0.31,3.29,3.29,0,0,1,1.42-1,6.4,6.4,0,0,1,1.85-.85,0.89,0.89,0,0,1,.49.83,1.54,1.54,0,0,0,.31.83,2.82,2.82,0,0,0,.83-0.42,8.85,8.85,0,0,1,1.53-.79,6.3,6.3,0,0,1,2.31-.44,3.28,3.28,0,0,1,1.67.41,3.13,3.13,0,0,1,.89.75l0.33,0.41,0.71-.41a9.52,9.52,0,0,1,1.63-.75,6.76,6.76,0,0,1,2.26-.41q3.75,0,3.75,4.12v4.43a1.42,1.42,0,0,0,.37,1.11,3.11,3.11,0,0,0,1.29.46q0.72,0.14.72,0.41h0Z"/><path id="path2899" class="cls-1" d="M416.64,140.27q0,0.59-1.59,1.46a7.73,7.73,0,0,1-3.71,1,4.82,4.82,0,0,1-3.47-1.35,5,5,0,0,1-1.5-3.83,5.8,5.8,0,0,1,1.68-4.35,5.32,5.32,0,0,1,3.86-1.53,4.2,4.2,0,0,1,2.53.86,3.69,3.69,0,0,1,1.39,1.75,0.51,0.51,0,0,0,.37.38,0.42,0.42,0,0,1,.36.48q0,0.56-1.34,1l-6.3,1.87q0.62,3.25,3.34,3.25a7.42,7.42,0,0,0,3.58-1.15,1.15,1.15,0,0,1,.59-0.18Q416.64,139.87,416.64,140.27Zm-3.24-5.48a1.75,1.75,0,0,0-.61-1.32,2.11,2.11,0,0,0-1.5-.57q-2.52,0-2.52,3.62v0.33l3.72-1.12A1,1,0,0,0,413.4,134.78Z"/><path id="path2901" class="cls-1" d="M433,142.32q0,0.42-.62.38a42.38,42.38,0,0,0-4.46-.05,0.8,0.8,0,0,1-.85-0.19,0.77,0.77,0,0,1,0-.23,0.9,0.9,0,0,1,.79-0.49,1.25,1.25,0,0,0,.72-1.41v-3.64q0-3.13-2.72-3.13a4.59,4.59,0,0,0-2.26.57,1.54,1.54,0,0,0-1,1.16v5q0,1.29,1.68,1.44,0.64,0.05.64,0.41a0.39,0.39,0,0,1-.18.41,2,2,0,0,1-.46,0,26.22,26.22,0,0,0-4.43.22,2.44,2.44,0,0,1-.62,0,0.36,0.36,0,0,1-.27-0.42,0.87,0.87,0,0,1,.78-0.56q0.72-.22.72-1.82v-4.14a2.14,2.14,0,0,0-.27-1.34A4.09,4.09,0,0,0,419,134a0.37,0.37,0,0,1-.27-0.38,0.67,0.67,0,0,1,.56-0.48,8,8,0,0,0,1.68-.92,2.74,2.74,0,0,1,1-.52q0.37,0,.49.84a0.92,0.92,0,0,0,.34.84,8.19,8.19,0,0,1,1.39-.8,6.28,6.28,0,0,1,3-.8q3.54,0,3.57,4l0,4.4a1.51,1.51,0,0,0,.44,1.22,3.09,3.09,0,0,0,1.27.46A0.59,0.59,0,0,1,433,142.32Z"/><path id="path2903" class="cls-1" d="M441.82,141.28a1.47,1.47,0,0,1-1.2,1.12,6,6,0,0,1-2.16.41q-3,0-3-3.16V134.7a2.57,2.57,0,0,0-.15-1.16,2,2,0,0,0-1-.42,0.37,0.37,0,0,1-.22-0.42,0.5,0.5,0,0,1,.16-0.48,6.29,6.29,0,0,0,2.57-2.6,0.49,0.49,0,0,1,.59-0.16,0.39,0.39,0,0,1,.31.36l0.05,1.71a0.43,0.43,0,0,0,.07.27,0.56,0.56,0,0,0,.44.12h3q0.26,0,0,.64a1,1,0,0,1-.93.78h-2.06a0.81,0.81,0,0,0-.66.18,1.37,1.37,0,0,0-.1.67v4.47a4.68,4.68,0,0,0,.3,2.15,2.19,2.19,0,0,0,1.85.57,5.33,5.33,0,0,0,1.16-.16l0.72-.16a0.17,0.17,0,0,1,.16.21h0Z"/><path id="path2905" class="cls-1" d="M448,141.89a5.84,5.84,0,0,1-3,5.35,0.94,0.94,0,0,1-.4.16,0.53,0.53,0,0,1-.36-0.44,0.76,0.76,0,0,1-.05-0.25A1.63,1.63,0,0,1,445,146a2.6,2.6,0,0,0,1.34-2.11,1.36,1.36,0,0,0-.78-1.09,2,2,0,0,1-1.09-1.68,1.5,1.5,0,0,1,.45-1.11,1.64,1.64,0,0,1,1.2-.44,1.66,1.66,0,0,1,1.4.66A2.77,2.77,0,0,1,448,141.89Z"/><path id="path2907" class="cls-1" d="M251.14,162.25a5.3,5.3,0,0,1-1.76,4,6.16,6.16,0,0,1-4.37,1.65,5.73,5.73,0,0,1-4.13-1.45,5,5,0,0,1-1.46-3.76,5.26,5.26,0,0,1,1.85-4.07,6.21,6.21,0,0,1,4.28-1.6,5.74,5.74,0,0,1,4.16,1.44,5,5,0,0,1,1.45,3.77h0Zm-2.41.83a5.53,5.53,0,0,0-1-3.49,3.12,3.12,0,0,0-2.57-1.3,3,3,0,0,0-2.37,1,3.58,3.58,0,0,0-.92,2.48,5.66,5.66,0,0,0,1.07,3.66,3.16,3.16,0,0,0,2.57,1.2,3,3,0,0,0,2.38-1A3.78,3.78,0,0,0,248.73,163.09Z"/><path id="path2909" class="cls-1" d="M267.78,167.52q0,0.42-.62.38a42.38,42.38,0,0,0-4.46-.05,0.8,0.8,0,0,1-.85-0.19,0.77,0.77,0,0,1,0-.23,0.9,0.9,0,0,1,.79-0.49,1.25,1.25,0,0,0,.72-1.41v-3.64q0-3.13-2.72-3.13a4.59,4.59,0,0,0-2.26.57,1.54,1.54,0,0,0-1,1.16v5q0,1.29,1.68,1.44,0.64,0.05.64,0.41a0.39,0.39,0,0,1-.18.41,2,2,0,0,1-.46,0,26.22,26.22,0,0,0-4.43.22,2.44,2.44,0,0,1-.62,0,0.36,0.36,0,0,1-.27-0.42,0.87,0.87,0,0,1,.78-0.56q0.72-.22.72-1.82v-4.14a2.14,2.14,0,0,0-.27-1.34,4.09,4.09,0,0,0-1.27-.57,0.37,0.37,0,0,1-.27-0.38,0.67,0.67,0,0,1,.56-0.48,8,8,0,0,0,1.68-.92,2.74,2.74,0,0,1,1-.52q0.37,0,.49.84a0.92,0.92,0,0,0,.34.84,8.19,8.19,0,0,1,1.39-.8,6.28,6.28,0,0,1,3-.8q3.54,0,3.57,4l0,4.4a1.51,1.51,0,0,0,.44,1.22,3.09,3.09,0,0,0,1.27.46,0.59,0.59,0,0,1,.62.45h0Z"/><path id="path2911" class="cls-1" d="M279.21,165.47q0,0.59-1.59,1.46a7.73,7.73,0,0,1-3.71,1,4.82,4.82,0,0,1-3.47-1.35,5,5,0,0,1-1.5-3.83,5.8,5.8,0,0,1,1.68-4.35,5.32,5.32,0,0,1,3.86-1.53,4.2,4.2,0,0,1,2.53.86,3.69,3.69,0,0,1,1.39,1.75,0.51,0.51,0,0,0,.37.38,0.42,0.42,0,0,1,.36.48q0,0.56-1.34,1l-6.3,1.87q0.62,3.25,3.34,3.25a7.42,7.42,0,0,0,3.58-1.15,1.15,1.15,0,0,1,.59-0.18q0.22,0,.22.4h0ZM276,160a1.75,1.75,0,0,0-.61-1.32,2.11,2.11,0,0,0-1.5-.57q-2.52,0-2.52,3.62V162l3.72-1.12A1,1,0,0,0,276,160Z"/><path id="path2913" class="cls-1" d="M301.1,166.42a0.52,0.52,0,0,1,.05.18,2.57,2.57,0,0,1-1.39.94,8.57,8.57,0,0,1-1.9.75,1.14,1.14,0,0,1-.57-0.83,1.68,1.68,0,0,0-.44-0.83l-1.55.72a6.4,6.4,0,0,1-2.37.72,4.33,4.33,0,0,1-3.13-1.3,5.74,5.74,0,0,1-1.6-4.33,5.25,5.25,0,0,1,1.89-4,5.11,5.11,0,0,1,3.4-1.49,16.6,16.6,0,0,1,2.94.31q0.53,0.1.53-.31v-4.68a1.41,1.41,0,0,0-.38-1.12,3.85,3.85,0,0,0-1.16-.52,0.56,0.56,0,0,1-.44-0.53,0.62,0.62,0,0,1,.59-0.51,12.17,12.17,0,0,0,1.93-.82,4,4,0,0,1,1.15-.49q0.51,0,.51.7s0,0.44,0,1.36,0,1.81,0,2.67v12.43a0.66,0.66,0,0,0,.7.78,4,4,0,0,0,.7-0.08,0.52,0.52,0,0,1,.64.31h0Zm-4.22-1.35v-4.89a1.74,1.74,0,0,0-1.07-1.24,4.68,4.68,0,0,0-2.46-.68q-2.86,0-2.86,3.53a4.83,4.83,0,0,0,1.13,3.23,3.4,3.4,0,0,0,2.67,1.34,3.83,3.83,0,0,0,1.64-.46A1.41,1.41,0,0,0,296.87,165.07Z"/><path id="path2915" class="cls-1" d="M311.42,158.07q0,1.65-1,1.65a8,8,0,0,1-1-.19,6.35,6.35,0,0,0-1.24-.19q-1.53,0-1.53,2.06v4a1.09,1.09,0,0,0,.49,1,6.79,6.79,0,0,0,1.44.48,0.62,0.62,0,0,1,.62.46,0.6,0.6,0,0,1-.1.44,0.91,0.91,0,0,1-.51,0,18.79,18.79,0,0,0-4.76,0,1.2,1.2,0,0,1-.7,0,0.6,0.6,0,0,1-.12-0.48,0.82,0.82,0,0,1,.76-0.59,1.17,1.17,0,0,0,.76-1.31v-4.39a2.08,2.08,0,0,0-.23-1.16,4,4,0,0,0-1.24-.81l-0.08,0a0.42,0.42,0,0,1-.27-0.38,0.65,0.65,0,0,1,.56-0.46,6.05,6.05,0,0,0,1.72-.93,2.23,2.23,0,0,1,.82-0.51q0.49,0,.59.85a1.61,1.61,0,0,0,.29,1.08l1.53-1a3.84,3.84,0,0,1,2.19-.67,0.9,0.9,0,0,1,1,1.05h0Z"/><path id="path2917" class="cls-1" d="M325,162.25a5.3,5.3,0,0,1-1.76,4,6.16,6.16,0,0,1-4.37,1.65,5.73,5.73,0,0,1-4.13-1.45,5,5,0,0,1-1.46-3.76,5.26,5.26,0,0,1,1.85-4.07,6.21,6.21,0,0,1,4.28-1.6,5.74,5.74,0,0,1,4.16,1.44,5,5,0,0,1,1.45,3.77h0Zm-2.41.83a5.53,5.53,0,0,0-1-3.49,3.12,3.12,0,0,0-2.57-1.3,3,3,0,0,0-2.37,1,3.58,3.58,0,0,0-.92,2.48,5.66,5.66,0,0,0,1.07,3.66,3.16,3.16,0,0,0,2.57,1.2,3,3,0,0,0,2.38-1A3.78,3.78,0,0,0,322.56,163.09Z"/><path id="path2919" class="cls-1" d="M339.25,161.88a6,6,0,0,1-1.72,4.34,5.38,5.38,0,0,1-4,1.78,7.39,7.39,0,0,1-2.67-.49q-0.14-.05-0.14.67v4.12q0,1,1.63,1.29a3.66,3.66,0,0,1,1,.25,0.42,0.42,0,0,1,.2.39q0,0.46-.62.42a23.62,23.62,0,0,0-5,.14,1.06,1.06,0,0,1-.56,0,0.43,0.43,0,0,1-.11-0.37,1.12,1.12,0,0,1,.78-0.56,1.25,1.25,0,0,0,.67-1.31V160.49a1.81,1.81,0,0,0-.81-1.83,1.45,1.45,0,0,1-1-.7,0.59,0.59,0,0,1,.56-0.45,5.56,5.56,0,0,0,1.49-.63,2.79,2.79,0,0,1,.78-0.37,0.87,0.87,0,0,1,.67.75,2.61,2.61,0,0,0,.51,1.09l1.18-.64a5.06,5.06,0,0,1,2.46-.7,4.74,4.74,0,0,1,3.23,1.11,4.68,4.68,0,0,1,1.52,3.76h0ZM336.93,163a5,5,0,0,0-1.11-3.47,2.73,2.73,0,0,0-2.12-1,2.94,2.94,0,0,0-1.8.66,2.78,2.78,0,0,0-1.13,2.37v3.87a1.36,1.36,0,0,0,1,.78,6.46,6.46,0,0,0,2.43.45q2.69,0,2.69-3.61h0Z"/><path id="path2921" class="cls-1" d="M359.52,166.45a1.88,1.88,0,0,1-1,.87,3.76,3.76,0,0,1-1.67.58,1.19,1.19,0,0,1-.94-0.52,1.24,1.24,0,0,0-.57-0.52,8.47,8.47,0,0,0-1.3.56,5.45,5.45,0,0,1-2.37.56,2.75,2.75,0,0,1-1.87-.66,2.49,2.49,0,0,1-.82-2q0-2.37,5.41-3.39a0.91,0.91,0,0,0,.94-0.75l0-.87q0.08-2.24-2-2.24a1.49,1.49,0,0,0-1.11,1.05,1.82,1.82,0,0,1-1.51,1.13,0.87,0.87,0,0,1-1.12-.94q0-.66,1.67-1.53a7.25,7.25,0,0,1,3.36-.92q2.78,0,2.75,2.64l-0.05,5.63a0.72,0.72,0,0,0,.75.89,4.43,4.43,0,0,0,.57-0.07l0.49-.07q0.4,0,.4.53h0Zm-4.21-3.12a0.48,0.48,0,0,0-.16-0.45,0.77,0.77,0,0,0-.54,0q-3.29.59-3.29,2.15a1.45,1.45,0,0,0,1.71,1.57,4.16,4.16,0,0,0,1.41-.26,1,1,0,0,0,.85-0.72Z"/><path id="path2923" class="cls-1" d="M368.7,166.48a1.47,1.47,0,0,1-1.2,1.12,6,6,0,0,1-2.16.41q-3,0-3-3.16V159.9a2.57,2.57,0,0,0-.15-1.16,2,2,0,0,0-1-.42,0.37,0.37,0,0,1-.22-0.42,0.5,0.5,0,0,1,.16-0.48,6.29,6.29,0,0,0,2.57-2.6,0.49,0.49,0,0,1,.59-0.16,0.39,0.39,0,0,1,.31.36l0.05,1.71a0.43,0.43,0,0,0,.07.27,0.56,0.56,0,0,0,.44.12h3q0.26,0,0,.64a1,1,0,0,1-.93.78h-2.06a0.81,0.81,0,0,0-.66.18,1.37,1.37,0,0,0-.1.67v4.47a4.68,4.68,0,0,0,.3,2.15,2.19,2.19,0,0,0,1.85.57,5.33,5.33,0,0,0,1.16-.16l0.72-.16a0.17,0.17,0,0,1,.16.21h0Z"/><path id="path2925" class="cls-1" d="M388.5,166.45a1.88,1.88,0,0,1-1,.87,3.76,3.76,0,0,1-1.67.58,1.19,1.19,0,0,1-.94-0.52,1.24,1.24,0,0,0-.57-0.52,8.47,8.47,0,0,0-1.3.56,5.45,5.45,0,0,1-2.37.56,2.75,2.75,0,0,1-1.87-.66,2.49,2.49,0,0,1-.82-2q0-2.37,5.41-3.39a0.91,0.91,0,0,0,.94-0.75l0-.87q0.08-2.24-2-2.24a1.49,1.49,0,0,0-1.11,1.05,1.82,1.82,0,0,1-1.51,1.13,0.87,0.87,0,0,1-1.12-.94q0-.66,1.67-1.53a7.25,7.25,0,0,1,3.36-.92q2.78,0,2.75,2.64l-0.05,5.63a0.72,0.72,0,0,0,.75.89,4.43,4.43,0,0,0,.57-0.07l0.49-.07q0.4,0,.4.53h0Zm-4.21-3.12a0.48,0.48,0,0,0-.16-0.45,0.77,0.77,0,0,0-.54,0q-3.29.59-3.29,2.15a1.45,1.45,0,0,0,1.71,1.57,4.16,4.16,0,0,0,1.41-.26,1,1,0,0,0,.85-0.72Z"/><path id="path2927" class="cls-1" d="M404.63,166.48a1.47,1.47,0,0,1-1.2,1.12,6,6,0,0,1-2.16.41q-3,0-3-3.16V159.9a2.57,2.57,0,0,0-.15-1.16,2,2,0,0,0-1-.42,0.37,0.37,0,0,1-.22-0.42,0.5,0.5,0,0,1,.16-0.48,6.29,6.29,0,0,0,2.57-2.6,0.49,0.49,0,0,1,.59-0.16,0.39,0.39,0,0,1,.31.36l0.05,1.71a0.43,0.43,0,0,0,.07.27,0.56,0.56,0,0,0,.44.12h3q0.26,0,0,.64a1,1,0,0,1-.93.78h-2.06a0.81,0.81,0,0,0-.66.18,1.37,1.37,0,0,0-.1.67v4.47a4.68,4.68,0,0,0,.3,2.15,2.19,2.19,0,0,0,1.85.57,5.33,5.33,0,0,0,1.16-.16l0.72-.16a0.17,0.17,0,0,1,.16.21h0Z"/><path id="path2929" class="cls-1" d="M411.48,151.95a1.74,1.74,0,0,1-.47,1.17,1.36,1.36,0,0,1-1,.54,1.48,1.48,0,0,1-1.05-.38,1.3,1.3,0,0,1-.41-1,1.6,1.6,0,0,1,.5-1.12,1.48,1.48,0,0,1,1.07-.52A1.2,1.2,0,0,1,411.48,151.95ZM413,167.42a0.47,0.47,0,0,1-.33.45,5.54,5.54,0,0,1-.66,0,24.43,24.43,0,0,0-4,.05,1.21,1.21,0,0,1-.67,0,0.52,0.52,0,0,1-.14-0.44,0.79,0.79,0,0,1,.72-0.52,1.35,1.35,0,0,0,.79-1.52V161.8a3.71,3.71,0,0,0-.22-1.52,2,2,0,0,0-1.24-.92,0.51,0.51,0,0,1-.42-0.45,0.69,0.69,0,0,1,.62-0.59,7.9,7.9,0,0,0,2-.94,2.76,2.76,0,0,1,.88-0.49q0.55,0,.53.71-0.05,3.58-.05,7.3a2.35,2.35,0,0,0,.26,1.27,1.7,1.7,0,0,0,1.09.6q0.89,0.21.81,0.64h0Z"/><path id="path2931" class="cls-1" d="M437.08,167.39a0.36,0.36,0,0,1-.42.42,32.91,32.91,0,0,0-5.2,0,0.43,0.43,0,0,1-.53-0.48q0-.41.72-0.44,0.92-.05.92-1.49v-3.64q0-3.06-2.49-3.06a5.94,5.94,0,0,0-2.41.48,1.36,1.36,0,0,0-1,.85l-0.05,5.43a2.06,2.06,0,0,0,.21,1.12,1.07,1.07,0,0,0,.67.27q1.2,0.21,1.2.51a0.65,0.65,0,0,1-.07.36,0.56,0.56,0,0,1-.49.12q-1.56-.05-4.54.05a1.09,1.09,0,0,1-.55-0.07,0.44,0.44,0,0,1-.12-0.38q0-.36.78-0.44t0.85-1.54v-3.72a3.53,3.53,0,0,0-.68-2.32,1.89,1.89,0,0,0-1.53-.74,5.37,5.37,0,0,0-2.46.55,1.57,1.57,0,0,0-1.09,1.18v5a1.38,1.38,0,0,0,.44,1.18,2.8,2.8,0,0,0,1.44.37q0.56,0,.56.38a0.38,0.38,0,0,1-.45.4,44.8,44.8,0,0,0-4.95.19,1.54,1.54,0,0,1-.67,0,0.35,0.35,0,0,1-.12-0.33,1.11,1.11,0,0,1,1-.59q0.62-.16.62-1.6v-4.2q0-1.6-.86-1.85a5,5,0,0,1-.88-0.3,0.34,0.34,0,0,1-.16-0.31,3.29,3.29,0,0,1,1.42-1,6.4,6.4,0,0,1,1.85-.85,0.89,0.89,0,0,1,.49.83,1.54,1.54,0,0,0,.31.83,2.82,2.82,0,0,0,.83-0.42,8.85,8.85,0,0,1,1.53-.79,6.3,6.3,0,0,1,2.31-.44,3.28,3.28,0,0,1,1.67.41,3.13,3.13,0,0,1,.89.75l0.33,0.41,0.71-.41a9.52,9.52,0,0,1,1.63-.75,6.76,6.76,0,0,1,2.26-.41q3.75,0,3.75,4.12v4.43a1.42,1.42,0,0,0,.37,1.11,3.11,3.11,0,0,0,1.29.46q0.72,0.14.72,0.41h0Z"/><path id="path2933" class="cls-1" d="M448.63,165.47q0,0.59-1.59,1.46a7.73,7.73,0,0,1-3.71,1,4.82,4.82,0,0,1-3.47-1.35,5,5,0,0,1-1.5-3.83,5.8,5.8,0,0,1,1.68-4.35,5.32,5.32,0,0,1,3.86-1.53,4.2,4.2,0,0,1,2.53.86,3.69,3.69,0,0,1,1.39,1.75,0.51,0.51,0,0,0,.37.38,0.42,0.42,0,0,1,.36.48q0,0.56-1.34,1l-6.3,1.87q0.62,3.25,3.34,3.25a7.42,7.42,0,0,0,3.58-1.15,1.15,1.15,0,0,1,.59-0.18q0.22,0,.22.4h0ZM445.39,160a1.75,1.75,0,0,0-.61-1.32,2.11,2.11,0,0,0-1.5-.57q-2.52,0-2.52,3.62V162l3.72-1.12A1,1,0,0,0,445.39,160Z"/></g></g></svg>