<?xml version="1.0" encoding="UTF-8" standalone="no"?>
<svg
   xmlns:dc="http://purl.org/dc/elements/1.1/"
   xmlns:cc="http://creativecommons.org/ns#"
   xmlns:rdf="http://www.w3.org/1999/02/22-rdf-syntax-ns#"
   xmlns:svg="http://www.w3.org/2000/svg"
   xmlns="http://www.w3.org/2000/svg"
   viewBox="0 0 1616.2234 305.26801"
   height="305.26801"
   width="1616.2234"
   xml:space="preserve"
   id="svg2"
   version="1.1"><metadata
     id="metadata8"><rdf:RDF><cc:Work
         rdf:about=""><dc:format>image/svg+xml</dc:format><dc:type
           rdf:resource="http://purl.org/dc/dcmitype/StillImage" /><dc:title></dc:title></cc:Work></rdf:RDF></metadata><defs
     id="defs6"><clipPath
       id="clipPath24"
       clipPathUnits="userSpaceOnUse"><path
         id="path22"
         d="M 0,1080 H 1920 V 0 H 0 Z" /></clipPath><clipPath
       id="clipPath92"
       clipPathUnits="userSpaceOnUse"><path
         id="path90"
         d="m 159.252,638.869 h 69.919 v -28.114 h -69.919 z" /></clipPath><clipPath
       id="clipPath120"
       clipPathUnits="userSpaceOnUse"><path
         id="path118"
         d="m 459.407,638.869 h 69.917 v -28.114 h -69.917 z" /></clipPath><clipPath
       id="clipPath136"
       clipPathUnits="userSpaceOnUse"><path
         id="path134"
         d="m 170.059,605.189 h 28.516 v -29.823 h -28.516 z" /></clipPath><clipPath
       id="clipPath168"
       clipPathUnits="userSpaceOnUse"><path
         id="path166"
         d="M 388.029,709.985 H 581.678 V 516.338 H 388.029 Z" /></clipPath><clipPath
       id="clipPath184"
       clipPathUnits="userSpaceOnUse"><path
         id="path182"
         d="M 401.168,702.69 H 573.966 V 529.891 H 401.168 Z" /></clipPath><clipPath
       id="clipPath208"
       clipPathUnits="userSpaceOnUse"><path
         id="path206"
         d="M 495.193,697.205 H 567.56 V 605.928 H 495.193 Z" /></clipPath></defs><g
     transform="matrix(1.3333333,0,0,-1.3333333,-777.41838,681.19268)"
     id="g10"><g
       transform="translate(645.25425,938.13562)"
       id="g18"><g
         transform="translate(-677.28815,-1047.9661)"
         clip-path="url(#clipPath24)"
         id="g20"><g
           style="fill:#ffffff"
           transform="translate(751.9307,518.7705)"
           id="g26"><path
             id="path28"
             style="fill:#ffffff;fill-opacity:1;fill-rule:nonzero;stroke:none"
             d="M 0,0 V 92.713 H 28.321 V -124.015 H 0 v 103.147 h -97.185 c 2.185,5.763 5.217,10.681 9.092,14.757 C -84.217,-2.04 -78.804,0 -71.845,0 Z m -136.833,92.713 h 28.32 v -216.728 h -28.32 z" /></g><g
           style="fill:#ffffff"
           transform="translate(1031.7051,394.7559)"
           id="g30"><path
             id="path32"
             style="fill:#ffffff;fill-opacity:1;fill-rule:nonzero;stroke:none"
             d="m 0,0 h -28.321 l -54.554,154.124 h 29.811 l 38.158,-120.14 2.087,-7.452 2.087,7.452 27.128,72.741 c 2.184,-2.385 4.123,-5.469 5.813,-9.243 1.687,-3.777 2.879,-7.899 3.577,-12.371 C 26.48,80.64 26.681,75.968 26.383,71.1 26.085,66.228 25.139,61.411 23.551,56.642 Z" /></g><g
           style="fill:#ffffff"
           transform="translate(1102.0596,394.7559)"
           id="g34"><path
             id="path36"
             style="fill:#ffffff;fill-opacity:1;fill-rule:nonzero;stroke:none"
             d="m 0,0 -54.257,154.124 h 29.812 l 38.158,-120.14 2.087,-7.452 2.087,7.452 37.86,120.14 h 28.32 L 29.812,0 Z" /></g><path
           id="path38"
           style="fill:#ffffff;fill-opacity:1;fill-rule:nonzero;stroke:none"
           d="m 1236.266,394.756 h -27.725 v 225.969 h 27.725 z" /><g
           style="fill:#ffffff"
           transform="translate(1291.7148,494.623)"
           id="g40"><path
             id="path42"
             style="fill:#ffffff;fill-opacity:1;fill-rule:nonzero;stroke:none"
             d="M 0,0 58.132,-99.867 H 26.531 l -44.12,80.49 -22.955,-25.936 c -1.192,2.982 -1.937,6.26 -2.235,9.838 -0.298,3.578 -0.103,7.304 0.595,11.179 0.695,3.876 1.836,7.751 3.429,11.627 1.588,3.875 3.774,7.401 6.559,10.583 l 48.592,56.343 h 32.792 z" /></g><g
           style="fill:#ffffff"
           transform="translate(1393.9951,436.79)"
           id="g44"><path
             id="path46"
             style="fill:#ffffff;fill-opacity:1;fill-rule:nonzero;stroke:none"
             d="m 0,0 c 0,-6.959 1.439,-12.623 4.322,-16.993 2.879,-4.373 7.5,-6.558 13.863,-6.558 2.385,0 4.42,0.246 6.111,0.745 1.686,0.494 3.923,1.043 6.708,1.64 5.762,1.388 11.128,1.49 16.098,0.298 4.965,-1.193 9.54,-3.978 13.713,-8.348 -10.537,-6.362 -19.428,-10.582 -26.681,-12.669 -7.257,-2.087 -13.564,-3.131 -18.93,-3.131 -5.963,0 -11.529,0.745 -16.694,2.237 -5.171,1.49 -9.74,4.122 -13.714,7.899 -3.978,3.774 -7.108,8.693 -9.39,14.757 -2.287,6.06 -3.428,13.76 -3.428,23.103 V 112.09 H 0 Z" /></g><g
           style="fill:#ffffff"
           transform="translate(1474.4854,394.7559)"
           id="g48"><path
             id="path50"
             style="fill:#ffffff;fill-opacity:1;fill-rule:nonzero;stroke:none"
             d="m 0,0 c -4.77,5.366 -7.899,10.681 -9.391,15.949 -1.49,5.264 -2.235,10.881 -2.235,16.843 V 154.124 H 16.099 V 37.563 c 0,-5.567 0.344,-11.478 1.043,-17.739 C 17.836,13.564 19.079,6.954 20.868,0 Z" /></g><path
           id="path52"
           style="fill:#ffffff;fill-opacity:1;fill-rule:nonzero;stroke:none"
           d="m 1559.296,394.756 h -27.128 v 225.969 h 27.128 z" /><g
           style="fill:#ffffff"
           transform="translate(1760.4883,548.8799)"
           id="g54"><path
             id="path56"
             style="fill:#ffffff;fill-opacity:1;fill-rule:nonzero;stroke:none"
             d="m 0,0 c 3.177,-3.382 5.413,-7.006 6.708,-10.881 1.29,-3.876 2.432,-8.198 3.428,-12.968 v -5.366 l 2.385,5.366 c 3.973,7.551 9.54,13.76 16.695,18.632 7.154,4.867 14.803,7.304 22.954,7.304 3.974,0 8.841,-0.797 14.607,-2.385 L 63.2,-23.551 c -3.181,0.792 -5.916,1.29 -8.198,1.49 -2.287,0.197 -4.322,0.299 -6.111,0.299 -4.575,0 -9.144,-0.946 -13.713,-2.832 -4.574,-1.891 -8.646,-4.821 -12.223,-8.795 -3.577,-3.977 -6.512,-9.143 -8.794,-15.502 -2.287,-6.362 -3.429,-14.01 -3.429,-22.954 v -82.279 H -15.8 V -52.17 c 0,9.14 -0.4,18.381 -1.192,27.725 -0.796,9.34 -1.989,17.486 -3.577,24.445 z" /></g><g
           transform="translate(522.5117,580.5576)"
           id="g106" /><g
           style="fill:#ffffff"
           transform="translate(885.1855,418.3066)"
           id="g146"><path
             id="path148"
             style="fill:#ffffff;fill-opacity:1;fill-rule:nonzero;stroke:none"
             d="m 0,0 c -6.857,-3.382 -13.666,-5.067 -20.42,-5.067 -7.557,0 -13.518,2.235 -17.887,6.707 -4.375,4.471 -6.558,9.786 -6.558,15.949 0,2.78 0.394,5.515 1.191,8.198 0.793,2.683 2.385,5.165 4.77,7.452 2.384,2.283 5.613,4.324 9.689,6.112 4.07,1.789 9.391,3.176 15.949,4.173 3.973,0.597 7.252,1.789 9.838,3.578 2.58,1.789 4.719,3.824 6.408,6.111 1.688,2.282 2.879,4.621 3.579,7.006 0.693,2.385 1.238,4.471 1.638,6.26 -15.304,-1.789 -28.222,-4.024 -38.754,-6.708 -10.537,-2.682 -19.033,-6.013 -25.488,-9.986 -6.461,-3.978 -11.133,-8.748 -14.012,-14.309 -2.882,-5.567 -4.322,-12.125 -4.322,-19.676 0,-5.962 1.141,-11.529 3.428,-16.695 2.283,-5.169 5.613,-9.641 9.986,-13.415 4.369,-3.777 9.639,-6.758 15.801,-8.943 6.158,-2.184 13.117,-3.279 20.867,-3.279 7.156,0 13.961,1.146 20.422,3.428 6.455,2.283 12.189,6.283 14.295,10.123 3.619,6.595 6.51,29.377 6.51,29.377 C 11.164,8.841 6.857,3.377 0,0" /></g><g
           style="fill:#ffffff"
           transform="translate(933.4805,415.1768)"
           id="g150"><path
             id="path152"
             style="fill:#ffffff;fill-opacity:1;fill-rule:nonzero;stroke:none"
             d="m 0,0 c -0.895,8.444 -1.342,18.632 -1.342,30.557 v 42.63 c 0,20.271 -5.217,35.922 -15.652,46.952 -10.434,11.03 -25.293,16.546 -44.567,16.546 -6.558,0 -13.564,-0.648 -21.017,-1.938 -7.453,-1.295 -16.051,-4.025 -25.787,-8.198 l 6.857,-18.484 c 7.154,2.581 13.363,4.421 18.631,5.516 5.264,1.09 10.584,1.64 15.949,1.64 13.514,0 23.151,-3.727 28.918,-11.18 5.762,-7.453 8.645,-17.044 8.645,-28.768 V 19.526 c 0,0 0.553,-18.957 1.93,-25.097 0.713,-3.178 2.499,-5.859 4.033,-8.441 1.588,-2.682 3.773,-4.82 6.558,-6.409 H 3.428 C 2.035,-15.255 0.895,-8.45 0,0" /></g><g
           style="fill:#ffffff"
           transform="translate(1659.9668,418.3066)"
           id="g154"><path
             id="path156"
             style="fill:#ffffff;fill-opacity:1;fill-rule:nonzero;stroke:none"
             d="m 0,0 c -6.856,-3.382 -13.666,-5.067 -20.42,-5.067 -7.556,0 -13.518,2.235 -17.887,6.707 -4.374,4.471 -6.558,9.786 -6.558,15.949 0,2.78 0.395,5.515 1.192,8.198 0.792,2.683 2.385,5.165 4.77,7.452 2.384,2.283 5.613,4.324 9.688,6.112 4.071,1.789 9.391,3.176 15.949,4.173 3.974,0.597 7.253,1.789 9.838,3.578 2.58,1.789 4.719,3.824 6.409,6.111 1.687,2.282 2.879,4.621 3.578,7.006 0.694,2.385 1.239,4.471 1.639,6.26 -15.305,-1.789 -28.222,-4.024 -38.754,-6.708 -10.537,-2.682 -19.033,-6.013 -25.489,-9.986 -6.46,-3.978 -11.133,-8.748 -14.011,-14.309 -2.883,-5.567 -4.323,-12.125 -4.323,-19.676 0,-5.962 1.142,-11.529 3.429,-16.695 2.282,-5.169 5.612,-9.641 9.986,-13.415 4.369,-3.777 9.638,-6.758 15.8,-8.943 6.158,-2.184 13.117,-3.279 20.868,-3.279 7.155,0 13.96,1.146 20.421,3.428 6.456,2.283 12.189,6.283 14.296,10.123 3.618,6.595 6.51,29.377 6.51,29.377 C 11.164,8.841 6.857,3.377 0,0" /></g><g
           style="fill:#ffffff"
           transform="translate(1708.2617,415.1768)"
           id="g158"><path
             id="path160"
             style="fill:#ffffff;fill-opacity:1;fill-rule:nonzero;stroke:none"
             d="m 0,0 c -0.895,8.444 -1.342,18.632 -1.342,30.557 v 42.63 c 0,20.271 -5.217,35.922 -15.651,46.952 -10.434,11.03 -25.293,16.546 -44.568,16.546 -6.558,0 -13.564,-0.648 -21.016,-1.938 -7.453,-1.295 -16.052,-4.025 -25.787,-8.198 l 6.856,-18.484 c 7.155,2.581 13.364,4.421 18.632,5.516 5.264,1.09 10.583,1.64 15.949,1.64 13.513,0 23.151,-3.727 28.917,-11.18 5.762,-7.453 8.646,-17.044 8.646,-28.768 V 19.526 c 0,0 0.552,-18.957 1.93,-25.097 0.713,-3.178 2.499,-5.859 4.032,-8.441 1.589,-2.682 3.773,-4.82 6.558,-6.409 H 3.428 C 2.035,-15.255 0.895,-8.45 0,0" /></g></g></g></g></svg>